<svg width="32" height="32" viewBox="0 0 32 32" fill="none" xmlns="http://www.w3.org/2000/svg">
<path fill-rule="evenodd" clip-rule="evenodd" d="M26 17C26 17.553 25.552 18 25 18C24.448 18 24 17.553 24 17V9C24 8.448 24.448 8 25 8C25.552 8 26 8.448 26 9V17ZM18 20C18 20.553 17.552 21 17 21C16.448 21 16 20.553 16 20V14C16 13.448 16.448 13 17 13C17.552 13 18 13.448 18 14V20ZM10 21C10 21.553 9.552 22 9 22C8.448 22 8 21.553 8 21V11C8 10.448 8.448 10 9 10C9.552 10 10 10.448 10 11V21ZM24 0L16 6L8 3L0 8V32L8 27L16 30L24 24L32 30V6L24 0Z" fill="#131314"/>
</svg>
