<svg width="28" height="32" viewBox="0 0 28 32" fill="none" xmlns="http://www.w3.org/2000/svg">
<path fill-rule="evenodd" clip-rule="evenodd" d="M21 16H7C6.447 16 6 15.553 6 15C6 14.448 6.447 14 7 14H21C21.553 14 22 14.448 22 15C22 15.553 21.553 16 21 16ZM21 21H7C6.447 21 6 20.553 6 20C6 19.448 6.447 19 7 19H21C21.553 19 22 19.448 22 20C22 20.553 21.553 21 21 21ZM21 26H7C6.447 26 6 25.553 6 25C6 24.448 6.447 24 7 24H21C21.553 24 22 24.448 22 25C22 25.553 21.553 26 21 26ZM9 4H11.223C11.223 2.896 12.466 2 14 2C15.534 2 16.777 2.896 16.777 4H19V8H9V4ZM24 4H21V2H18.307C17.44 0.81 15.846 0 14 0C12.154 0 10.56 0.81 9.693 2H7V4H4C1.791 4 0 5.791 0 8V28C0 30.209 1.791 32 4 32H24C26.209 32 28 30.209 28 28V8C28 5.791 26.209 4 24 4Z" fill="#131314"/>
</svg>
