<svg width="24" height="26" viewBox="0 0 24 26" fill="none" xmlns="http://www.w3.org/2000/svg">
<path fill-rule="evenodd" clip-rule="evenodd" d="M19 16C17.23 16 15.685 16.925 14.796 18.312L9.441 15.252C9.787 14.572 10 13.814 10 13C10 12.497 9.903 12.021 9.765 11.563L15.336 8.38C16.249 9.37 17.547 10 19 10C21.762 10 24 7.762 24 5C24 2.238 21.762 0 19 0C16.238 0 14 2.238 14 5C14 5.503 14.097 5.979 14.235 6.438L8.664 9.62C7.751 8.631 6.453 8 5 8C2.238 8 0 10.238 0 13C0 15.762 2.238 18 5 18C6.14 18 7.179 17.604 8.02 16.962L14.055 20.46C14.035 20.64 14 20.814 14 21C14 23.762 16.238 26 19 26C21.762 26 24 23.762 24 21C24 18.238 21.762 16 19 16Z" fill="#131314"/>
</svg>
